<svg width="20" height="20" viewBox="0 0 20 20" fill="none" xmlns="http://www.w3.org/2000/svg">
<path fill-rule="evenodd" clip-rule="evenodd" d="M4.21967 4.21967C4.51256 3.92678 4.98744 3.92678 5.28033 4.21967L9.75 8.68934L14.2197 4.21967C14.5126 3.92678 14.9874 3.92678 15.2803 4.21967C15.5732 4.51256 15.5732 4.98744 15.2803 5.28033L10.8107 9.75L15.2803 14.2197C15.5732 14.5126 15.5732 14.9874 15.2803 15.2803C14.9874 15.5732 14.5126 15.5732 14.2197 15.2803L9.75 10.8107L5.28033 15.2803C4.98744 15.5732 4.51256 15.5732 4.21967 15.2803C3.92678 14.9874 3.92678 14.5126 4.21967 14.2197L8.68934 9.75L4.21967 5.28033C3.92678 4.98744 3.92678 4.51256 4.21967 4.21967Z" fill="white"/>
</svg>
